<svg width="24" height="24" viewBox="0 0 24 24" fill="none" xmlns="http://www.w3.org/2000/svg">
<path d="M18.295 7.115C18.6844 6.72564 18.6844 6.09436 18.295 5.705C17.9056 5.31564 17.2744 5.31564 16.885 5.705L12 10.59L7.115 5.705C6.72564 5.31564 6.09436 5.31564 5.705 5.705C5.31564 6.09436 5.31564 6.72564 5.705 7.115L10.59 12L5.705 16.885C5.31564 17.2744 5.31564 17.9056 5.705 18.295C6.09436 18.6844 6.72564 18.6844 7.115 18.295L12 13.41L16.885 18.295C17.2744 18.6844 17.9056 18.6844 18.295 18.295C18.6844 17.9056 18.6844 17.2744 18.295 16.885L13.41 12L18.295 7.115Z" fill="#54E1D9"/>
<path d="M2 1H22V-1H2V1ZM23 2V22H25V2H23ZM22 23H2V25H22V23ZM1 22V2H-1V22H1ZM2 23C1.44772 23 1 22.5523 1 22H-1C-1 23.6569 0.343145 25 2 25V23ZM23 22C23 22.5523 22.5523 23 22 23V25C23.6569 25 25 23.6569 25 22H23ZM22 1C22.5523 1 23 1.44772 23 2H25C25 0.343146 23.6569 -1 22 -1V1ZM2 -1C0.343146 -1 -1 0.343145 -1 2H1C1 1.44772 1.44772 1 2 1V-1Z" fill="#54E1D9"/>
</svg>
