<svg width="26" height="26" viewBox="0 0 26 26" fill="none" xmlns="http://www.w3.org/2000/svg">
<rect width="26" height="26" rx="10" fill="url(#paint0_radial_68_706)"/>
<path d="M13 6.60959C15.0674 6.60959 15.3493 6.60959 16.1951 6.60959C16.9469 6.60959 17.3228 6.79754 17.6048 6.89152C17.9807 7.07947 18.2626 7.17345 18.5445 7.45537C18.8265 7.7373 19.0144 8.01923 19.1084 8.39513C19.2024 8.67706 19.2963 9.05296 19.3903 9.80477C19.3903 10.6506 19.3903 10.8385 19.3903 13C19.3903 15.1614 19.3903 15.3493 19.3903 16.1951C19.3903 16.9469 19.2024 17.3228 19.1084 17.6048C18.9204 17.9807 18.8265 18.2626 18.5445 18.5445C18.2626 18.8265 17.9807 19.0144 17.6048 19.1084C17.3228 19.2024 16.9469 19.2963 16.1951 19.3903C15.3493 19.3903 15.1614 19.3903 13 19.3903C10.8385 19.3903 10.6506 19.3903 9.80477 19.3903C9.05296 19.3903 8.67706 19.2024 8.39513 19.1084C8.01923 18.9204 7.7373 18.8265 7.45537 18.5445C7.17345 18.2626 6.98549 17.9807 6.89152 17.6048C6.79754 17.3228 6.70357 16.9469 6.60959 16.1951C6.60959 15.3493 6.60959 15.1614 6.60959 13C6.60959 10.8385 6.60959 10.6506 6.60959 9.80477C6.60959 9.05296 6.79754 8.67706 6.89152 8.39513C7.07947 8.01923 7.17345 7.7373 7.45537 7.45537C7.7373 7.17345 8.01923 6.98549 8.39513 6.89152C8.67706 6.79754 9.05296 6.70357 9.80477 6.60959C10.6506 6.60959 10.9325 6.60959 13 6.60959ZM13 5.19995C10.8385 5.19995 10.6506 5.19995 9.80477 5.19995C8.95899 5.19995 8.39513 5.3879 7.92525 5.57586C7.45537 5.76381 6.98549 6.04573 6.51561 6.51561C6.04573 6.98549 5.85778 7.3614 5.57586 7.92525C5.3879 8.39513 5.29393 8.95899 5.19995 9.80477C5.19995 10.6506 5.19995 10.9325 5.19995 13C5.19995 15.1614 5.19995 15.3493 5.19995 16.1951C5.19995 17.0409 5.3879 17.6048 5.57586 18.0747C5.76381 18.5445 6.04573 19.0144 6.51561 19.4843C6.98549 19.9542 7.3614 20.1421 7.92525 20.4241C8.39513 20.612 8.95899 20.706 9.80477 20.8C10.6506 20.8 10.9325 20.8 13 20.8C15.0674 20.8 15.3493 20.8 16.1951 20.8C17.0409 20.8 17.6048 20.612 18.0747 20.4241C18.5445 20.2361 19.0144 19.9542 19.4843 19.4843C19.9542 19.0144 20.1421 18.6385 20.4241 18.0747C20.612 17.6048 20.706 17.0409 20.8 16.1951C20.8 15.3493 20.8 15.0674 20.8 13C20.8 10.9325 20.8 10.6506 20.8 9.80477C20.8 8.95899 20.612 8.39513 20.4241 7.92525C20.2361 7.45537 19.9542 6.98549 19.4843 6.51561C19.0144 6.04573 18.6385 5.85778 18.0747 5.57586C17.6048 5.3879 17.0409 5.29393 16.1951 5.19995C15.3493 5.19995 15.1614 5.19995 13 5.19995Z" fill="white"/>
<path d="M13 8.95899C10.7445 8.95899 8.95899 10.7445 8.95899 13C8.95899 15.2554 10.7445 17.0409 13 17.0409C15.2554 17.0409 17.0409 15.2554 17.0409 13C17.0409 10.7445 15.2554 8.95899 13 8.95899ZM13 15.6313C11.5903 15.6313 10.3686 14.5036 10.3686 13C10.3686 11.5903 11.4963 10.3686 13 10.3686C14.4096 10.3686 15.6313 11.4963 15.6313 13C15.6313 14.4096 14.4096 15.6313 13 15.6313Z" fill="white"/>
<path d="M17.1349 9.80477C17.6539 9.80477 18.0747 9.38403 18.0747 8.86501C18.0747 8.346 17.6539 7.92525 17.1349 7.92525C16.6159 7.92525 16.1951 8.346 16.1951 8.86501C16.1951 9.38403 16.6159 9.80477 17.1349 9.80477Z" fill="white"/>
<defs>
<radialGradient id="paint0_radial_68_706" cx="0" cy="0" r="1" gradientUnits="userSpaceOnUse" gradientTransform="translate(26.523 0.528126) scale(60.0417)">
<stop stop-color="#F9ED32"/>
<stop offset="0.36" stop-color="#EE2A7B"/>
<stop offset="0.44" stop-color="#D22A8A"/>
<stop offset="0.6" stop-color="#8B2AB2"/>
<stop offset="0.83" stop-color="#1B2AF0"/>
<stop offset="0.88" stop-color="#002AFF"/>
</radialGradient>
</defs>
</svg>
