<svg width="63" height="63" viewBox="0 0 63 63" fill="none" xmlns="http://www.w3.org/2000/svg">
<circle cx="31.5" cy="31.5" r="31.5" fill="#C4C4C4"/>
<path d="M21.004 27.6V36H20.128V28.368H16.072L15.976 31.176C15.936 32.336 15.84 33.272 15.688 33.984C15.544 34.688 15.32 35.216 15.016 35.568C14.712 35.912 14.308 36.084 13.804 36.084C13.588 36.084 13.364 36.056 13.132 36L13.204 35.208C13.34 35.24 13.472 35.256 13.6 35.256C13.952 35.256 14.236 35.116 14.452 34.836C14.676 34.556 14.844 34.124 14.956 33.54C15.068 32.948 15.144 32.168 15.184 31.2L15.304 27.6H21.004ZM27.5219 36.072C26.6899 36.072 25.9339 35.888 25.2539 35.52C24.5819 35.144 24.0539 34.632 23.6699 33.984C23.2939 33.336 23.1059 32.608 23.1059 31.8C23.1059 30.992 23.2939 30.264 23.6699 29.616C24.0539 28.968 24.5819 28.46 25.2539 28.092C25.9339 27.716 26.6899 27.528 27.5219 27.528C28.3539 27.528 29.1019 27.712 29.7659 28.08C30.4379 28.448 30.9659 28.96 31.3499 29.616C31.7339 30.264 31.9259 30.992 31.9259 31.8C31.9259 32.608 31.7339 33.34 31.3499 33.996C30.9659 34.644 30.4379 35.152 29.7659 35.52C29.1019 35.888 28.3539 36.072 27.5219 36.072ZM27.5219 35.28C28.1859 35.28 28.7859 35.132 29.3219 34.836C29.8579 34.532 30.2779 34.116 30.5819 33.588C30.8859 33.052 31.0379 32.456 31.0379 31.8C31.0379 31.144 30.8859 30.552 30.5819 30.024C30.2779 29.488 29.8579 29.072 29.3219 28.776C28.7859 28.472 28.1859 28.32 27.5219 28.32C26.8579 28.32 26.2539 28.472 25.7099 28.776C25.1739 29.072 24.7499 29.488 24.4379 30.024C24.1339 30.552 23.9819 31.144 23.9819 31.8C23.9819 32.456 24.1339 33.052 24.4379 33.588C24.7499 34.116 25.1739 34.532 25.7099 34.836C26.2539 35.132 26.8579 35.28 27.5219 35.28ZM39.3849 28.368H34.9089L34.9209 36H34.0449V27.6H39.3849V28.368ZM43.4594 36.072C42.6274 36.072 41.8714 35.888 41.1914 35.52C40.5194 35.144 39.9914 34.632 39.6074 33.984C39.2314 33.336 39.0434 32.608 39.0434 31.8C39.0434 30.992 39.2314 30.264 39.6074 29.616C39.9914 28.968 40.5194 28.46 41.1914 28.092C41.8714 27.716 42.6274 27.528 43.4594 27.528C44.2914 27.528 45.0394 27.712 45.7034 28.08C46.3754 28.448 46.9034 28.96 47.2874 29.616C47.6714 30.264 47.8634 30.992 47.8634 31.8C47.8634 32.608 47.6714 33.34 47.2874 33.996C46.9034 34.644 46.3754 35.152 45.7034 35.52C45.0394 35.888 44.2914 36.072 43.4594 36.072ZM43.4594 35.28C44.1234 35.28 44.7234 35.132 45.2594 34.836C45.7954 34.532 46.2154 34.116 46.5194 33.588C46.8234 33.052 46.9754 32.456 46.9754 31.8C46.9754 31.144 46.8234 30.552 46.5194 30.024C46.2154 29.488 45.7954 29.072 45.2594 28.776C44.7234 28.472 44.1234 28.32 43.4594 28.32C42.7954 28.32 42.1914 28.472 41.6474 28.776C41.1114 29.072 40.6874 29.488 40.3754 30.024C40.0714 30.552 39.9194 31.144 39.9194 31.8C39.9194 32.456 40.0714 33.052 40.3754 33.588C40.6874 34.116 41.1114 34.532 41.6474 34.836C42.1914 35.132 42.7954 35.28 43.4594 35.28Z" fill="black"/>
</svg>
