<svg width="34" height="34" viewBox="0 0 34 34" fill="none" xmlns="http://www.w3.org/2000/svg">
<path d="M17.0002 0.333374C7.80016 0.333374 0.333496 7.80004 0.333496 17C0.333496 26.2 7.80016 33.6667 17.0002 33.6667C26.2002 33.6667 33.6668 26.2 33.6668 17C33.6668 7.80004 26.2002 0.333374 17.0002 0.333374ZM17.0002 5.33337C19.7668 5.33337 22.0002 7.56671 22.0002 10.3334C22.0002 13.1 19.7668 15.3334 17.0002 15.3334C14.2335 15.3334 12.0002 13.1 12.0002 10.3334C12.0002 7.56671 14.2335 5.33337 17.0002 5.33337ZM17.0002 29C12.8335 29 9.15016 26.8667 7.00016 23.6334C7.05016 20.3167 13.6668 18.5 17.0002 18.5C20.3168 18.5 26.9502 20.3167 27.0002 23.6334C24.8502 26.8667 21.1668 29 17.0002 29Z" fill="#323232"/>
</svg>
