<svg width="247" height="219" viewBox="0 0 247 219" fill="none" xmlns="http://www.w3.org/2000/svg">
<path d="M0 62C0 56.4772 4.47715 52 10 52H156.5C162.023 52 166.5 47.5228 166.5 42V10C166.5 4.47715 170.977 0 176.5 0H237C242.523 0 247 4.47715 247 10V209C247 214.523 242.523 219 237 219H10C4.47716 219 0 214.523 0 209V62Z" fill="#FAFAFA"/>
<path d="M0.5 62C0.5 56.7533 4.7533 52.5 10 52.5H156.5C162.299 52.5 167 47.799 167 42V10C167 4.7533 171.253 0.5 176.5 0.5H237C242.247 0.5 246.5 4.7533 246.5 10V209C246.5 214.247 242.247 218.5 237 218.5H10C4.7533 218.5 0.5 214.247 0.5 209V62Z" stroke="#4C8FDD" stroke-opacity="0.5"/>
</svg>
