<svg width="40" height="38" viewBox="0 0 40 38" fill="none" xmlns="http://www.w3.org/2000/svg">
<path d="M19.4833 31.2911C19.8011 31.0993 20.199 31.0993 20.5168 31.2911L30.8461 37.5254C31.6034 37.9825 32.5376 37.3035 32.3367 36.4421L29.5955 24.692C29.5112 24.3305 29.6341 23.952 29.9146 23.709L39.042 15.8019C39.7106 15.2227 39.3532 14.1244 38.4718 14.0497L26.4551 13.0302C26.0855 12.9988 25.7637 12.7655 25.6189 12.424L20.9208 1.33905C20.5762 0.526027 19.424 0.526028 19.0794 1.33906L14.3812 12.424C14.2365 12.7655 13.9146 12.9988 13.5451 13.0302L1.52838 14.0497C0.646951 14.1244 0.289544 15.2227 0.958143 15.8019L10.0855 23.709C10.3661 23.952 10.489 24.3305 10.4046 24.692L7.6635 36.4421C7.46253 37.3035 8.39677 37.9825 9.15408 37.5254L19.4833 31.2911Z" fill="#FFC83B"/>
</svg>
