<svg width="162" height="162" viewBox="0 0 162 162" fill="none" xmlns="http://www.w3.org/2000/svg">
<path d="M81 0.166626C36.38 0.166626 0.166687 36.38 0.166687 81C0.166687 125.62 36.38 161.833 81 161.833C125.62 161.833 161.833 125.62 161.833 81C161.833 36.38 125.62 0.166626 81 0.166626ZM81 24.4166C94.4184 24.4166 105.25 35.2483 105.25 48.6666C105.25 62.085 94.4184 72.9166 81 72.9166C67.5817 72.9166 56.75 62.085 56.75 48.6666C56.75 35.2483 67.5817 24.4166 81 24.4166ZM81 139.2C60.7917 139.2 42.9275 128.853 32.5 113.172C32.7425 97.0858 64.8334 88.275 81 88.275C97.0859 88.275 129.258 97.0858 129.5 113.172C119.073 128.853 101.208 139.2 81 139.2Z" fill="#323232"/>
</svg>
